<?xml version="1.0" encoding="UTF-8"?>
<svg id="Layer_2" data-name="Layer 2" xmlns="http://www.w3.org/2000/svg" viewBox="0 0 293.77 47.87">
  <defs>
    <style>
      .cls-1 {
        fill: none;
      }

      .cls-2 {
        fill: #6e7864;
      }

      .cls-3 {
        fill: #5b695d;
      }
    </style>
  </defs>
  <g id="Layer_3" data-name="Layer 3">
    <g>
      <path class="cls-2" d="M113.39,28.98c3.03-3.66,8.3-10.53,13.56-10.44,9.46.17,1.16,13.53-.34,17.77-.63,1.79-2.48,6.07,1.14,5.54,1.14-.17,3.62-2.05,4.55-2.86,5.04-4.41,5.41-10.55,11.11-15.48,3.85-3.34,13.13-8.73,15.62-1.38,1.43-1.31,3.11-3.86,5.36-3.17.92.28,1.22.95,1.03,1.87-.31,1.52-2.77,5.35-3.56,7.15-.94,2.15-1.96,4.68-2.7,6.9-.44,1.32-2.64,6.78-.37,7.2,2.49-.37,4.62-2.54,6.27-4.32,1.02-1.09,4.29-5.81,5.07-6.17.46-.21.92-.24,1.38-.02,1.04.74-.87,3.22-1.33,3.92-2.4,3.62-8.37,10.43-12.83,11.02-5.79.76-6.29-3.84-4.78-8.2-2.64,3.02-5.69,6.92-9.8,7.87-4.5,1.04-8.38-1.25-7.74-6.23l-5.01,4.17c-6.7,4.5-13.09,2.68-10.48-6.37,1.08-3.74,3.9-6.73,4.99-10.36,2.76-9.13-6.26-.76-8.41,1.73-4.6,5.31-5.7,10.59-9.1,15.85-.97,1.49-2.99,1.69-4.63,1.16-2.77-.9.8-6.32,1.11-8.1-4.72,4.62-13.09,11.03-19.98,7.51-2.11-1.08-3.33-3.31-3.59-5.59-3.41,3.22-8.53,8.45-13.72,5.91-3.69-1.81-2.41-6.14-1.13-9.11.85-1.98,5.32-8.51,5-10.06l-4.05-1.5-.49.22c-3.55,6.95-9.52,14.79-16.4,18.7-11.05,6.28-19.04-.08-14.44-12.25,2-5.3,8.06-11.84,13.7-13.16,8.25-1.93,10.07,4.93,5.36,10.57-2.09,2.5-5.48,4.51-8.45,5.8-.99.43-5.41,1.7-5.63,2.32-.83,2.39,1.88,4.94,4.22,5.04,7.03.28,15.89-10.88,18.81-16.55,1.53-2.96.12-1.81-.92-3.83-2.35-4.53,3.98-9.55,6.14-5.87,1.2,2.04-.49,3.87.33,4.87,1.92,2.33,8.24.93,7.81,6.12-.32,3.89-6.57,10.55-5.96,13.68s5.73-.66,6.95-1.71c3.88-3.33,2.95-4.72,4.92-8.79,2.23-4.6,7.92-10.44,13.02-11.66,8.23-1.96,10.16,4.98,5.49,10.7-3.48,4.25-9.07,6.21-14.12,7.81-1.22,5.13,3.5,5.94,7.43,4.69,3.42-1.09,10.61-7.31,12.29-10.46,1.79-3.34,2.24-8.13,3.71-11.37,1.01-2.23,5.54-1.36,6,.91.35,1.7-2.26,6.03-2.42,8.02ZM40.2,34.19c4.61-.49,12-6.73,11.22-11.63-.61-3.83-5.19.64-6.28,1.91-2.29,2.68-3.99,6.35-4.94,9.72ZM86.8,34.19c4.65-.58,12.31-6.51,11.49-11.63-.13-.81-.66-1.47-1.51-1.52-3.18-.19-9.93,9.84-9.98,13.15ZM156.63,21.93c-2.6-1.18-5.17.66-7.06,2.26-2.75,2.32-4.94,5.42-6.35,8.73-3.78,8.89.56,11.88,6.89,4.7,2.35-2.66,7.27-10.21,7.16-13.7-.02-.75-.28-1.35-.64-1.98Z"/>
      <path class="cls-2" d="M270.23,39.85c-3.8,3.51-7.94,8.54-13.8,7.31-3.32-.7-4-4.99-3.7-7.84-4.22,4.54-15.03,11.78-20.56,5.84-4.85-5.21.74-16.25,5.18-20.3,2.97-2.72,11.04-6.66,13.91-2.24,3.21,4.93-3.47,10.71-7.37,12.76-2.35,1.23-5.04,1.8-7.3,3.04-.63,5.93,4.89,5.53,8.79,3.49,1.62-.84,7.3-5.29,8.1-6.75.94-1.71,1.85-6.24,2.68-8.45,2.2-5.88,8.4-19.25,14.32-21.74,2.7-1.13,5.78-.76,6.1,2.65.58,6.22-8.19,17.85-12.33,22.41-.91,1-5.12,4.75-5.38,5.49-.32.94-.41,3.17-.34,4.19.56,7.4,7.93.6,10.22-1.99,3.08-3.5,3.1-6.3,4.63-10.48,2.18-5.94,8.33-19.88,14.33-22.26,5.34-2.12,6.93,1.68,5.57,6.36-2.06,7.05-7.99,14.61-12.86,20.02-.74.82-3.69,3.36-3.97,3.98-.67,1.5-.86,6.69.99,7.48,3.08,1.32,7.94-4.09,9.88-6.16.72-.77,3-4.25,3.97-3.98l.4.65c-1.67,3.91-4.98,7.86-8.22,10.62-5.7,4.86-13.74,5.34-13.26-4.11ZM260.43,30.57c.39.38,2.61-2.43,2.91-2.79,2.69-3.27,10.69-14.35,10.37-18.29-.07-.81-.5-1.39-1.33-1.06-1.34.52-4.25,4.92-5.1,6.32-3,4.94-4.71,10.49-6.85,15.82ZM277.92,30.31c.28.28,1.24-.83,1.46-1.05,2.96-3.11,10.83-14.51,11.47-18.49.15-.95.17-2.95-1.25-2.33-1.55.68-4.72,5.74-5.63,7.38-2.53,4.59-4.05,9.67-6.05,14.49ZM236.83,35.61c4.22-1,11.34-6.14,10.59-10.98-.55-3.55-5.34,1.16-6.34,2.38-1.95,2.35-3.52,5.65-4.25,8.61Z"/>
      <path class="cls-2" d="M199.97,35.35c-4.33,5-12.16,15.35-19.89,11.8-5.91-2.71-3.42-10.92-1.37-15.43,2.43-5.32,9.5-16.86,8.77-22.47-.52-4.03-4.35-2.61-6.78-1.26-4.16,2.31-9.6,8.68-8.13,13.79.39,1.36,2.92,2.78,1.55,4.03s-5.45-1.56-6.29-3c-5.3-9.03,12.65-21.1,21.07-19.21,11.7,2.62-.97,21.85-3.38,27.78-1.22,3.01-5.5,13.5,1.25,12.39,3.13-.51,8.06-6.33,9.96-8.86,5.11-6.81,8.3-14.54,11.17-22.51.91-.93,5.03-1.38,5.87-.28.5.65.21,1.52.05,2.23-1.01,4.61-5.21,11.35-6.9,16.43-1.05,3.14-2.71,8.2-.71,11.18,3.44,5.15,10.59-2.19,13.1-5.16,4.91-5.82,11.61-21.71,8.62-29.02-.52-1.27-2.31-2.71-.49-3.94,2.95-1.99,5.42.91,6.07,3.66,2.97,12.55-9.44,34.41-21.55,38.92-9.1,3.39-14.47-1.82-12-11.07Z"/>
      <path class="cls-3" d="M33.8,2.49c3.1,3.06,2.04,7.7-.34,10.84-.31.4-2.59,2.78-2.86,2.9-3.43,1.48-.82-3.74-.58-5.24,2.15-13.2-16.89-7.09-13.14,3.06,3.13,8.48,16.8,12.88,12.21,24.24-3.98,9.83-21.23,13.43-27.66,4.37-3.67-5.16.2-12.36,6.29-11.22,1.91.36-1.1,3.03-1.39,4.37-2.02,9.42,13.41,12.33,15.97,2.54,2.81-10.73-14.14-13.62-12.19-26.17C11.51,3.18,27.23-3.98,33.8,2.49Z"/>
      <path class="cls-1" d="M156.63,21.93c.37.63.62,1.23.64,1.98.11,3.49-4.81,11.04-7.16,13.7-6.33,7.18-10.67,4.19-6.89-4.7,1.4-3.31,3.6-6.41,6.35-8.73,1.89-1.59,4.46-3.44,7.06-2.26Z"/>
      <path class="cls-1" d="M86.8,34.19c.05-3.31,6.81-13.34,9.98-13.15.85.05,1.38.71,1.51,1.52.82,5.13-6.84,11.06-11.49,11.63Z"/>
      <path class="cls-1" d="M40.2,34.19c.95-3.38,2.65-7.04,4.94-9.72,1.09-1.27,5.67-5.74,6.28-1.91.78,4.9-6.61,11.14-11.22,11.63Z"/>
      <path class="cls-1" d="M260.43,30.57c2.14-5.33,3.85-10.88,6.85-15.82.85-1.4,3.75-5.8,5.1-6.32.84-.32,1.27.25,1.33,1.06.32,3.94-7.68,15.02-10.37,18.29-.3.36-2.52,3.16-2.91,2.79Z"/>
      <path class="cls-1" d="M277.92,30.31c2-4.83,3.52-9.9,6.05-14.49.9-1.64,4.08-6.7,5.63-7.38,1.42-.62,1.4,1.38,1.25,2.33-.64,3.98-8.5,15.38-11.47,18.49-.22.23-1.18,1.34-1.46,1.05Z"/>
      <path class="cls-1" d="M236.83,35.61c.73-2.96,2.3-6.25,4.25-8.61,1-1.21,5.78-5.93,6.34-2.38.75,4.84-6.37,9.98-10.59,10.98Z"/>
    </g>
  </g>
</svg>